<svg id="visual" viewBox="0 0 900 600" width="900" height="600" xmlns="http://www.w3.org/2000/svg" xmlns:xlink="http://www.w3.org/1999/xlink" version="1.1"><rect x="0" y="0" width="900" height="600" fill="#002233"></rect><path d="M0 497L21.5 501.3C43 505.7 86 514.3 128.8 508.7C171.7 503 214.3 483 257.2 467.2C300 451.3 343 439.7 385.8 428.8C428.7 418 471.3 408 514.2 411C557 414 600 430 642.8 433.7C685.7 437.3 728.3 428.7 771.2 420.7C814 412.7 857 405.3 878.5 401.7L900 398L900 601L878.5 601C857 601 814 601 771.2 601C728.3 601 685.7 601 642.8 601C600 601 557 601 514.2 601C471.3 601 428.7 601 385.8 601C343 601 300 601 257.2 601C214.3 601 171.7 601 128.8 601C86 601 43 601 21.5 601L0 601Z" fill="#0066FF" stroke-linecap="round" stroke-linejoin="miter"></path></svg>